<svg width="32" height="32" viewBox="0 0 32 32" fill="none" xmlns="http://www.w3.org/2000/svg">
<path d="M7.7316 10.263C7.50787 10.007 7.2324 9.87877 6.90461 9.87877H0.200883C0.14134 9.87877 0.0926229 9.85992 0.0559346 9.82223C0.0186449 9.78514 0 9.74319 0 9.69821V5.18056C0 5.13557 0.0186449 5.09423 0.0559346 5.05654C0.0926229 5.01885 0.14134 5 0.200883 5H7.28473C9.07223 5 10.6143 5.73075 11.9105 7.19104L13.6312 9.29149L10.2793 13.3799L7.7316 10.263ZM20.1118 7.16854C21.4079 5.72285 22.9572 5 24.7598 5H31.8214C31.8809 5 31.9254 5.0152 31.9555 5.04499C31.985 5.07539 32 5.12037 32 5.18056V9.69821C32 9.74319 31.985 9.78514 31.9555 9.82223C31.9254 9.85992 31.8809 9.87877 31.8214 9.87877H25.1176C24.7899 9.87877 24.5144 10.007 24.2906 10.263L19.3522 16.2713L24.3129 22.3246C24.5366 22.566 24.8043 22.6864 25.1176 22.6864H31.8214C31.8809 22.6864 31.9254 22.7052 31.9555 22.7429C31.985 22.7806 32 22.8298 32 22.8894V27.4071C32 27.4521 31.985 27.494 31.9555 27.5311C31.9254 27.5688 31.8809 27.5876 31.8214 27.5876H24.7598C22.9572 27.5876 21.4151 26.8575 20.134 25.3966L16.0226 20.3822L11.9105 25.3966C10.6143 26.8575 9.06501 27.5876 7.26248 27.5876H0.200883C0.14134 27.5876 0.0962316 27.5688 0.0667606 27.5311C0.0366883 27.4934 0.0222535 27.4448 0.0222535 27.384V22.8663C0.0222535 22.8213 0.0366883 22.78 0.0667606 22.7423C0.0962316 22.7046 0.14134 22.6858 0.200883 22.6858H6.90461C7.21737 22.6858 7.49283 22.5581 7.7316 22.3015L12.5805 16.3838L20.1118 7.16854Z" fill="#00D1FF"/>
</svg>
