<svg xmlns="http://www.w3.org/2000/svg" width="138" height="10" viewBox="0 0 138 10" fill="none">
  <path d="M13.3175 4.74245C12.729 4.1682 12.0218 3.8812 11.1955 3.8812H3.00464C2.85251 3.8812 2.72201 3.82844 2.61285 3.72265C2.50369 3.61713 2.44924 3.48842 2.44924 3.33653V2.67327C2.44924 2.52831 2.50369 2.4028 2.61285 2.29701C2.72201 2.19149 2.85251 2.13846 3.00464 2.13846H13.5655C13.5919 2.13846 13.6132 2.1302 13.6298 2.11368C13.6463 2.09742 13.6546 2.07904 13.6546 2.05932V0.079143C13.6546 0.052762 13.6463 0.0330429 13.6298 0.0197191C13.6132 0.00666187 13.5916 0 13.5655 0H3.00464C2.17168 0 1.46255 0.28726 0.877533 0.861513C0.292511 1.43577 0 2.1286 0 2.94055V3.06926C0 3.88787 0.292511 4.58416 0.877533 5.15842C1.46255 5.73267 2.17168 6.01966 3.00464 6.01966H11.1955C11.3409 6.01966 11.4682 6.07083 11.5771 6.17315C11.6863 6.27548 11.7407 6.40259 11.7407 6.55448V7.21773C11.7407 7.36962 11.6863 7.49673 11.5771 7.59906C11.468 7.70139 11.3407 7.75255 11.1955 7.75255H0.624788C0.605038 7.75255 0.586623 7.76081 0.570343 7.77733C0.553796 7.79385 0.545522 7.81544 0.545522 7.84182V9.82199C0.545522 9.84171 0.553796 9.8601 0.570343 9.87635C0.58689 9.89287 0.605038 9.90113 0.624788 9.90113H11.1955C12.0218 9.90113 12.729 9.61254 13.3175 9.03482C13.9057 8.45737 14.2001 7.76267 14.2001 6.95073V6.82175C14.1999 6.0098 13.9057 5.3167 13.3175 4.74245Z" fill="#00D1FF"/>
  <path d="M31.0972 0H28.8064C28.7867 0 28.7683 0.00666187 28.752 0.0197191C28.7354 0.0330429 28.7272 0.052762 28.7272 0.079143V2.59387C28.7272 2.81158 28.6145 2.97679 28.3901 3.08898L23.8188 4.97988L19.2475 3.08898C19.0228 2.97679 18.9104 2.81184 18.9104 2.59387V0.079143C18.9104 0.052762 18.9038 0.0330429 18.8907 0.0197191C18.8771 0.00666187 18.8573 0 18.8309 0H16.5402C16.5205 0 16.502 0.00666187 16.4858 0.0197191C16.4692 0.0330429 16.4609 0.052762 16.4609 0.079143V2.96027C16.4609 3.38956 16.58 3.78208 16.818 4.13835C17.0561 4.4949 17.3798 4.75871 17.7898 4.93032L22.5893 6.94007V9.8116C22.5893 9.83798 22.5975 9.85957 22.6141 9.87609C22.6306 9.89261 22.652 9.90087 22.6784 9.90087H24.9691C24.9889 9.90087 25.007 9.89261 25.0236 9.87609C25.0401 9.85957 25.0484 9.83825 25.0484 9.8116V6.94034L29.8478 4.94044C30.2575 4.76217 30.5818 4.4965 30.8196 4.14342C31.0577 3.79034 31.1764 3.39942 31.1764 2.97013V0.079143C31.1764 0.052762 31.1681 0.0330429 31.1516 0.0197191C31.1351 0.00666187 31.1169 0 31.0972 0Z" fill="#00D1FF"/>
  <path d="M48.1128 0H45.8221C45.7956 0 45.7756 0.00826072 45.7625 0.0247822C45.7492 0.0413036 45.7428 0.0594239 45.7428 0.079143V7.76215H44.7809C44.6024 7.76215 44.4502 7.683 44.3248 7.52445L39.8824 1.03952C39.4063 0.373065 38.7484 0.026381 37.9091 0H34.0816C34.0552 0 34.0336 0.00826072 34.017 0.0247822C34.0005 0.0413036 33.9922 0.0594239 33.9922 0.079143V9.82146C33.9922 9.84118 34.0005 9.85957 34.017 9.87582C34.0336 9.89235 34.0549 9.90061 34.0816 9.90061H36.3723C36.3921 9.90061 36.4102 9.89235 36.4268 9.87582C36.4433 9.85957 36.4516 9.84118 36.4516 9.82146V2.13846H37.4134C37.592 2.13846 37.7439 2.22107 37.8696 2.38602L42.3119 8.87095C42.7881 9.53767 43.4457 9.88089 44.2853 9.90061H48.113C48.1395 9.90061 48.1592 9.89235 48.1726 9.87582C48.1856 9.85957 48.1923 9.84118 48.1923 9.82146V0.079143C48.1923 0.0594239 48.1856 0.0413036 48.1726 0.0247822C48.1589 0.00826072 48.1392 0 48.1128 0Z" fill="#00D1FF"/>
  <path d="M64.6732 0H50.6418C50.6153 0 50.5953 0.00826072 50.5822 0.0247822C50.5689 0.0413036 50.5625 0.0594239 50.5625 0.079143V2.05932C50.5625 2.07904 50.5689 2.09742 50.5822 2.11368C50.5953 2.1302 50.6153 2.13846 50.6418 2.13846H56.4327V9.82146C56.4327 9.84118 56.4392 9.85957 56.4525 9.87582C56.4656 9.89235 56.4856 9.90061 56.512 9.90061H58.8027C58.8292 9.90061 58.8489 9.89235 58.8622 9.87582C58.8753 9.85957 58.882 9.84118 58.882 9.82146V2.13846H64.673C64.6994 2.13846 64.7208 2.1302 64.7373 2.11368C64.7538 2.09716 64.7621 2.07904 64.7621 2.05932V0.079143C64.7621 0.0594239 64.7538 0.0413036 64.7373 0.0247822C64.7213 0.00826072 64.6997 0 64.6732 0Z" fill="#00D1FF"/>
  <path d="M81.6888 0H79.3981C79.3784 0 79.3599 0.00826072 79.3437 0.0247822C79.3271 0.0413036 79.3188 0.0594239 79.3188 0.079143V3.88094H70.0372V0.079143C70.0372 0.0594239 70.029 0.0413036 70.0124 0.0247822C69.9959 0.0085272 69.9743 0 69.9481 0H67.6574C67.6376 0 67.6192 0.00826072 67.603 0.0247822C67.5864 0.0413036 67.5781 0.0594239 67.5781 0.079143V9.82146C67.5781 9.84118 67.5864 9.85957 67.603 9.87582C67.6195 9.89235 67.6376 9.90061 67.6574 9.90061H69.9481C69.9745 9.90061 69.9959 9.89235 70.0124 9.87582C70.029 9.8593 70.0372 9.84118 70.0372 9.82146V6.01967H79.3188V9.82146C79.3188 9.84118 79.3271 9.85957 79.3437 9.87582C79.3602 9.89235 79.3784 9.90061 79.3981 9.90061H81.6888C81.7152 9.90061 81.7366 9.89235 81.7531 9.87582C81.7697 9.8593 81.778 9.84118 81.778 9.82146V0.079143C81.778 0.0594239 81.7694 0.0413036 81.7531 0.0247822C81.7366 0.00826072 81.715 0 81.6888 0Z" fill="#00D1FF"/>
  <path d="M98.6362 0H87.5203C86.6937 0 85.9865 0.286993 85.3982 0.861246C84.8097 1.4355 84.5156 2.1286 84.5156 2.94055V6.95019C84.5156 7.76881 84.8097 8.4651 85.3982 9.03936C85.9865 9.61361 86.6937 9.90087 87.5203 9.90087H98.6362C98.656 9.90087 98.6741 9.89261 98.6907 9.87609C98.707 9.85957 98.7155 9.84145 98.7155 9.82173V7.84155C98.7155 7.81517 98.7072 7.79545 98.6907 7.78213C98.6741 7.76907 98.656 7.76241 98.6362 7.76241H87.5203C87.3681 7.76241 87.2392 7.70965 87.1335 7.60412C87.0276 7.4986 86.9747 7.37309 86.9747 7.22786V6.01966H98.629C98.6555 6.01966 98.6752 6.0114 98.6886 5.99488C98.7016 5.97836 98.7083 5.96024 98.7083 5.94052V3.96035C98.7083 3.93397 98.7016 3.91425 98.6886 3.90092C98.6752 3.88787 98.6555 3.8812 98.629 3.8812H86.9747V2.67327C86.9747 2.52805 87.0276 2.4028 87.1335 2.29701C87.2392 2.19149 87.3681 2.13846 87.5203 2.13846H98.6362C98.656 2.13846 98.6741 2.1302 98.6907 2.11368C98.707 2.09742 98.7155 2.07904 98.7155 2.05932V0.079143C98.7155 0.0594239 98.7072 0.0413036 98.6907 0.0247822C98.6741 0.00852719 98.656 0 98.6362 0Z" fill="#00D1FF"/>
  <path d="M115.572 0H101.54C101.514 0 101.494 0.00826072 101.481 0.0247822C101.467 0.0413036 101.461 0.0594239 101.461 0.079143V2.05932C101.461 2.07904 101.467 2.09742 101.481 2.11368C101.494 2.1302 101.514 2.13846 101.54 2.13846H107.331V9.82146C107.331 9.84118 107.338 9.85957 107.351 9.87582C107.364 9.89235 107.384 9.90061 107.41 9.90061H109.701C109.728 9.90061 109.747 9.89235 109.761 9.87582C109.774 9.85957 109.78 9.84118 109.78 9.82146V2.13846H115.571C115.598 2.13846 115.619 2.1302 115.636 2.11368C115.652 2.09716 115.661 2.07904 115.661 2.05932V0.079143C115.661 0.0594239 115.652 0.0413036 115.636 0.0247822C115.619 0.00826072 115.598 0 115.572 0Z" fill="#00D1FF"/>
  <path d="M120.906 0.0197191C120.893 0.00666187 120.873 0 120.846 0H118.556C118.529 0 118.509 0.00666187 118.496 0.0197191C118.483 0.0330429 118.477 0.052762 118.477 0.079143V9.82146C118.477 9.84118 118.483 9.85957 118.496 9.87582C118.509 9.89235 118.529 9.90061 118.556 9.90061H120.846C120.873 9.90061 120.893 9.89235 120.906 9.87582C120.919 9.8593 120.926 9.84118 120.926 9.82146V0.079143C120.926 0.0530285 120.919 0.0330429 120.906 0.0197191Z" fill="#00D1FF"/>
  <path d="M127.228 2.40602C127.128 2.29384 127.006 2.23761 126.861 2.23761H123.886C123.86 2.23761 123.838 2.22935 123.822 2.21283C123.805 2.19658 123.797 2.17819 123.797 2.15847V0.178295C123.797 0.158576 123.805 0.140455 123.822 0.123934C123.838 0.107679 123.86 0.0991516 123.886 0.0991516H127.029C127.823 0.0991516 128.507 0.419454 129.082 1.05953L129.846 1.9802L128.358 3.77224L127.228 2.40602ZM132.721 1.04967C133.296 0.41599 133.984 0.0991516 134.784 0.0991516H137.917C137.944 0.0991516 137.963 0.105813 137.977 0.118871C137.99 0.132195 137.996 0.151914 137.996 0.178295V2.15847C137.996 2.17819 137.99 2.19658 137.977 2.21283C137.963 2.22935 137.944 2.23761 137.917 2.23761H134.942C134.797 2.23761 134.675 2.29384 134.575 2.40602L132.384 5.0396L134.585 7.69289C134.685 7.79868 134.803 7.85144 134.942 7.85144H137.917C137.944 7.85144 137.963 7.8597 137.977 7.87622C137.99 7.89274 137.996 7.91433 137.996 7.94044V9.92062C137.996 9.94034 137.99 9.95872 137.977 9.97498C137.963 9.9915 137.944 9.99976 137.917 9.99976H134.784C133.984 9.99976 133.3 9.67972 132.731 9.03938L130.907 6.8415L129.082 9.03938C128.507 9.67972 127.819 9.99976 127.02 9.99976H123.886C123.86 9.99976 123.84 9.9915 123.827 9.97498C123.813 9.95846 123.807 9.93714 123.807 9.91049V7.93032C123.807 7.9106 123.813 7.89248 123.827 7.87596C123.84 7.85943 123.86 7.85117 123.886 7.85117H126.861C127 7.85117 127.122 7.79521 127.228 7.68276L129.379 5.08889L132.721 1.04967Z" fill="#00D1FF"/>
</svg>